<?xml version="1.0" encoding="utf-8"?>
<!-- Generator: Adobe Illustrator 19.2.0, SVG Export Plug-In . SVG Version: 6.00 Build 0)  -->
<svg version="1.1" id="Layer_1" xmlns="http://www.w3.org/2000/svg" xmlns:xlink="http://www.w3.org/1999/xlink" x="0px" y="0px"
	 viewBox="0 0 135 135" style="enable-background:new 0 0 135 135;" xml:space="preserve">
<style type="text/css">
	.st0{clip-path:url(#SVGID_2_);}
	.st1{clip-path:url(#SVGID_4_);fill:#0071BC;}
	.st2{fill:none;stroke:#FFFFFF;stroke-width:1.5;stroke-linecap:round;stroke-linejoin:round;stroke-miterlimit:10;}
</style>
<g>
	<g>
		<defs>
			<circle id="SVGID_1_" cx="67.9" cy="67.3" r="65"/>
		</defs>
		<clipPath id="SVGID_2_">
			<use xlink:href="#SVGID_1_"  style="overflow:visible;"/>
		</clipPath>
		<g class="st0">
			<defs>
				<rect id="SVGID_3_" x="2.9" y="2.3" width="130" height="130"/>
			</defs>
			<clipPath id="SVGID_4_">
				<use xlink:href="#SVGID_3_"  style="overflow:visible;"/>
			</clipPath>
			<rect x="-2.1" y="-2.7" class="st1" width="140" height="140"/>
		</g>
	</g>
	<g>
		<path class="st2" d="M75.5,91.9v-2.1c0-0.6-0.4-1.1-0.9-1.3c-6.3-2.5-9.8-5.5-10.4-7.4v-2c1.3-1.4,2.3-3.2,3-5.5
			c1.5-1,1.8-3.2,0.6-4.7v-4.5c0-4.6-2.5-7.8-8.4-7.8c-5.7,0-8.4,3.2-8.4,7.8v4.5c-1.2,1.5-0.8,3.7,0.6,4.7c0.6,2.2,1.6,4.1,3,5.5v2
			c-0.6,1.9-4.1,5-10.4,7.4c-0.5,0.2-0.9,0.7-0.9,1.3v2.1"/>
		<path class="st2" d="M72.2,63.4h3.5v8.1l9-7.7c4.5-0.9,7.9-5.2,7.9-10.4c0-5.8-4.3-10.5-9.6-10.5h-9.8c-4.7,0-8.7,3.7-9.5,8.7"/>
		<line class="st2" x1="71.4" y1="51.2" x2="84" y2="51.2"/>
		<line class="st2" x1="71.4" y1="56.5" x2="77.7" y2="56.5"/>
	</g>
</g>
</svg>
