<svg id="Layer_2" data-name="Layer 2" xmlns="http://www.w3.org/2000/svg" xmlns:xlink="http://www.w3.org/1999/xlink" viewBox="0 0 1491.83 374.87"><defs><style>.cls-1{fill:none;}.cls-2{fill:#afcede;}.cls-3{fill:#ccc;}.cls-4{fill:#82b4cd;}.cls-5{fill:#45a600;}.cls-6{fill:#036;}.cls-7{fill:#c33;}.cls-8{fill:#069;}.cls-9{fill:#4690b5;}.cls-10{fill:#ffbf00;}.cls-11{fill:#cce0ea;}.cls-12{fill:#ffd966;}.cls-13{fill:#ac0000;}.cls-14{fill:#2b6c00;}.cls-15{fill:#458600;}.cls-16{fill:#71bb3c;}.cls-17{fill:#97cd70;}.cls-18{fill:#fff;}.cls-19{fill:#257ca8;}.cls-20{clip-path:url(#clip-path);}</style><clipPath id="clip-path" transform="translate(0 -35.65)"><polygon class="cls-1" points="1056.19 166.23 987.86 211.2 987.86 254.45 1124.52 254.45 1124.52 211.2 1056.19 166.23"/></clipPath></defs><title>Houses_wide</title><path class="cls-2" d="M1381,261.25a21.26,21.26,0,0,0-19.1,11.94h-77.22a21.28,21.28,0,0,0-21.28,21.28v12.09a21.28,21.28,0,0,0,21.28,21.28h75v9.21A21.28,21.28,0,0,0,1381,358.34h62v7a21.28,21.28,0,0,0,21.28,21.28h27.51V261.25H1381Z" transform="translate(0 -35.65)"/><path class="cls-3" d="M1166.84,410.53H1203a66.16,66.16,0,0,0-65.81-61.81l-64.84-.1c-16,0-30.07-9.66-30.08-20.62,0-31.16-29.67-56.5-66.05-56.5H207.66c-36.21,0-66.14,25.32-66.73,56.45-0.21,11.25-14.57,21.13-30.73,21.13H0v36H110.21c36.21,0,66.14-25.32,66.73-56.45,0.21-11.25,14.57-21.13,30.73-21.13H976.21c16,0,30,9.6,30.05,20.55,0,31.14,29.66,56.52,66,56.57l64.84,0.1A30.12,30.12,0,0,1,1166.84,410.53Z" transform="translate(0 -35.65)"/><path class="cls-4" d="M1469.52,303.81a9.08,9.08,0,0,1-9-7.81,9.07,9.07,0,0,1-18,0,9.07,9.07,0,0,1-18,0,9.07,9.07,0,0,1-18,0,9.07,9.07,0,0,1-18,0,9.08,9.08,0,0,1-9,7.81v3.59h89.85v-3.59Z" transform="translate(0 -35.65)"/><path class="cls-4" d="M1370.8,293.46a9.08,9.08,0,0,1-9-7.81,9.07,9.07,0,0,1-18,0,9.07,9.07,0,0,1-18,0,9.07,9.07,0,0,1-18,0,9.07,9.07,0,0,1-18,0,9.08,9.08,0,0,1-9,7.81v3.59h89.85v-3.59Z" transform="translate(0 -35.65)"/><polygon class="cls-5" points="78.75 249.6 107.63 166.47 136.5 249.6 78.75 249.6"/><rect class="cls-6" x="203.03" y="191.14" width="2.78" height="20.4"/><path class="cls-7" d="M204.42,217.42c-2.73,0-4.95.24-4.95,3v9.52h9.9v-9.52C209.37,217.66,207.15,217.42,204.42,217.42Z" transform="translate(0 -35.65)"/><rect class="cls-8" x="285.31" y="107.06" width="10.73" height="21.64"/><rect class="cls-6" x="283.31" y="101.75" width="14.73" height="7.15"/><polygon class="cls-6" points="212.9 134.68 260.03 90.46 307.17 134.68 212.9 134.68"/><rect class="cls-9" x="221.9" y="134.68" width="76.26" height="74.88"/><polygon class="cls-9" points="221.9 134.68 260.03 98.91 298.16 134.68 221.9 134.68"/><polygon class="cls-8" points="260.03 98.91 221.9 134.68 221.9 209.56 260.03 209.56 260.03 98.91 260.03 98.91"/><rect class="cls-6" x="228.09" y="163.63" width="25.84" height="21.64"/><circle class="cls-6" cx="260.03" cy="132.93" r="9.23"/><circle class="cls-6" cx="280.41" cy="166.76" r="7.7"/><rect class="cls-6" x="272.71" y="166.76" width="15.39" height="27.11"/><path class="cls-5" d="M308.67,206.56a45.8,45.8,0,0,0-35.4,16.72,13,13,0,0,0-18.77,9.85,28.17,28.17,0,0,0-38.44,15.24,19,19,0,0,0-25.22,4.12H354.59A45.93,45.93,0,0,0,308.67,206.56Z" transform="translate(0 -35.65)"/><rect class="cls-10" x="620.87" y="114.63" width="8.18" height="19.93"/><rect class="cls-7" x="618.85" y="107.36" width="12.23" height="7.67"/><polygon class="cls-7" points="598.71 153.47 656.17 96.72 713.63 153.47 598.71 153.47"/><rect class="cls-11" x="609.89" y="153.48" width="92.55" height="65.32"/><polygon class="cls-11" points="609.89 153.47 656.17 107.77 702.45 153.47 609.89 153.47"/><polygon class="cls-4" points="609.89 153.47 609.89 218.8 656.17 218.8 656.17 107.77 609.89 153.47"/><rect class="cls-7" x="621.96" y="167.66" width="21.34" height="51.13"/><rect class="cls-8" x="669.9" y="168.87" width="18.53" height="21.23"/><rect class="cls-10" x="666.27" y="190.1" width="25.79" height="6.63"/><circle class="cls-2" cx="656.17" cy="137.18" r="9.31"/><rect class="cls-6" x="1300.45" y="184.06" width="3.52" height="34.73"/><path class="cls-10" d="M1302.21,207.83c-3.46,0-6.27.3-6.27,3.77v12.07h12.55V211.6C1308.49,208.13,1305.68,207.83,1302.21,207.83Z" transform="translate(0 -35.65)"/><rect class="cls-6" x="1168.6" y="184.06" width="3.52" height="34.73"/><path class="cls-10" d="M1170.36,207.83c-3.46,0-6.27.3-6.27,3.77v12.07h12.55V211.6C1176.63,208.13,1173.83,207.83,1170.36,207.83Z" transform="translate(0 -35.65)"/><rect class="cls-12" x="1196.1" y="43.25" width="80.38" height="175.54"/><rect class="cls-10" x="1196.1" y="43.25" width="40.19" height="175.54"/><rect class="cls-8" x="1207.53" y="102.19" width="10.79" height="31.59"/><rect class="cls-8" x="1220.55" y="102.19" width="10.79" height="31.59"/><rect class="cls-8" x="1241.24" y="102.19" width="10.79" height="31.59"/><rect class="cls-8" x="1254.25" y="102.19" width="10.79" height="31.59"/><rect class="cls-8" x="1207.53" y="54.02" width="10.79" height="31.59"/><rect class="cls-8" x="1220.55" y="54.02" width="10.79" height="31.59"/><rect class="cls-8" x="1241.24" y="54.02" width="10.79" height="31.59"/><rect class="cls-8" x="1254.25" y="54.02" width="10.79" height="31.59"/><rect class="cls-7" x="1213.67" y="212.94" width="45.23" height="5.85"/><polygon class="cls-7" points="1253.44 0 1250.42 0 1222.15 0 1219.13 0 1188.87 43.26 1221.96 43.26 1250.61 43.26 1283.71 43.26 1253.44 0"/><rect class="cls-13" x="1224.92" y="172.65" width="22.74" height="40.3"/><circle class="cls-13" cx="1236.29" cy="172.65" r="11.37"/><polygon class="cls-14" points="39.84 238.28 60.53 120.09 81.22 238.28 39.84 238.28"/><polygon class="cls-15" points="61.84 262.45 82.54 179.32 103.23 262.45 61.84 262.45"/><rect class="cls-14" x="369.88" y="264.64" width="8.71" height="44.52"/><circle class="cls-5" cx="374.07" cy="243.54" r="21.51"/><path class="cls-16" d="M374.07,300.7a21.51,21.51,0,1,0,0-43v43Z" transform="translate(0 -35.65)"/><rect class="cls-14" x="347.69" y="291.7" width="5.37" height="17.46"/><circle class="cls-15" cx="350.27" cy="278.68" r="13.27"/><path class="cls-5" d="M350.27,327.6a13.27,13.27,0,1,0,0-26.53V327.6Z" transform="translate(0 -35.65)"/><rect class="cls-14" x="1344.42" y="178.02" width="7.81" height="40.78"/><circle class="cls-5" cx="1348.17" cy="159.09" r="19.29"/><path class="cls-17" d="M1348.17,214a19.29,19.29,0,0,0,0-38.58V214Z" transform="translate(0 -35.65)"/><rect class="cls-4" x="837.02" y="82.45" width="7.43" height="18.09"/><rect x="835.19" y="75.86" width="11.1" height="6.96"/><polygon points="816.91 117.72 869.07 61.8 921.23 117.72 816.91 117.72"/><rect class="cls-7" x="827.06" y="117.71" width="84.02" height="100.78"/><polygon class="cls-7" points="827.06 117.72 869.07 71.83 911.08 117.72 827.06 117.72"/><polygon class="cls-13" points="827.06 117.72 827.06 218.5 869.07 218.5 869.07 71.83 827.06 117.72"/><rect class="cls-8" x="836.35" y="172.08" width="22.51" height="46.42"/><rect class="cls-6" x="833.03" y="215.3" width="29.17" height="3.2"/><rect class="cls-11" x="878.2" y="173.18" width="10.98" height="10.98"/><rect class="cls-11" x="890.45" y="173.18" width="10.98" height="10.98"/><rect class="cls-11" x="878.2" y="185.43" width="10.98" height="10.98"/><rect class="cls-11" x="890.45" y="185.43" width="10.98" height="10.98"/><rect class="cls-11" x="878.2" y="127.55" width="10.98" height="10.98"/><rect class="cls-11" x="890.45" y="127.55" width="10.98" height="10.98"/><rect class="cls-11" x="878.2" y="139.8" width="10.98" height="10.98"/><rect class="cls-11" x="890.45" y="139.8" width="10.98" height="10.98"/><rect class="cls-11" x="836.45" y="127.55" width="10.98" height="10.98"/><rect class="cls-11" x="848.7" y="127.55" width="10.98" height="10.98"/><rect class="cls-11" x="836.45" y="139.8" width="10.98" height="10.98"/><rect class="cls-11" x="848.7" y="139.8" width="10.98" height="10.98"/><rect class="cls-11" x="863.58" y="95.05" width="10.98" height="10.98"/><polygon class="cls-18" points="935.85 193.03 934.19 195.27 934.22 195.27 934.22 218.5 937.49 218.5 937.49 195.27 937.52 195.27 935.85 193.03"/><polygon class="cls-18" points="940.68 193.03 939.02 195.27 939.04 195.27 939.04 218.5 942.31 218.5 942.31 195.27 942.34 195.27 940.68 193.03"/><polygon class="cls-18" points="945.5 193.03 943.84 195.27 943.87 195.27 943.87 218.5 947.14 218.5 947.14 195.27 947.16 195.27 945.5 193.03"/><polygon class="cls-18" points="950.33 193.03 948.66 195.27 948.69 195.27 948.69 218.5 951.96 218.5 951.96 195.27 951.99 195.27 950.33 193.03"/><polygon class="cls-18" points="955.15 193.03 953.49 195.27 953.52 195.27 953.52 218.5 956.79 218.5 956.79 195.27 956.82 195.27 955.15 193.03"/><polygon class="cls-18" points="959.98 193.03 958.32 195.27 958.34 195.27 958.34 218.5 961.61 218.5 961.61 195.27 961.64 195.27 959.98 193.03"/><polygon class="cls-18" points="964.8 193.03 963.14 195.27 963.17 195.27 963.17 218.5 966.44 218.5 966.44 195.27 966.46 195.27 964.8 193.03"/><polygon class="cls-18" points="969.63 193.03 967.96 195.27 967.99 195.27 967.99 218.5 971.26 218.5 971.26 195.27 971.29 195.27 969.63 193.03"/><polygon class="cls-18" points="974.45 193.03 972.79 195.27 972.82 195.27 972.82 218.5 976.09 218.5 976.09 195.27 976.11 195.27 974.45 193.03"/><polygon class="cls-18" points="979.28 193.03 977.61 195.27 977.64 195.27 977.64 218.5 980.91 218.5 980.91 195.27 980.94 195.27 979.28 193.03"/><polygon class="cls-18" points="984.1 193.03 982.44 195.27 982.47 195.27 982.47 218.5 985.74 218.5 985.74 195.27 985.76 195.27 984.1 193.03"/><polygon class="cls-18" points="988.92 193.03 987.26 195.27 987.29 195.27 987.29 218.5 990.56 218.5 990.56 195.27 990.59 195.27 988.92 193.03"/><polygon class="cls-18" points="993.75 193.03 992.09 195.27 992.11 195.27 992.11 218.5 995.38 218.5 995.38 195.27 995.41 195.27 993.75 193.03"/><polygon class="cls-18" points="998.57 193.03 996.91 195.27 996.94 195.27 996.94 218.5 1000.21 218.5 1000.21 195.27 1000.24 195.27 998.57 193.03"/><polygon class="cls-18" points="1003.4 193.03 1001.74 195.27 1001.76 195.27 1001.76 218.5 1005.03 218.5 1005.03 195.27 1005.06 195.27 1003.4 193.03"/><rect class="cls-10" x="403.32" y="161.16" width="7.16" height="17.44" transform="translate(813.8 304.11) rotate(-180)"/><rect class="cls-19" x="456.8" y="194.25" width="94.31" height="58.08" transform="translate(1007.91 410.92) rotate(-180)"/><rect class="cls-13" x="456.8" y="173.17" width="94.31" height="21.99" transform="translate(1007.91 332.68) rotate(-180)"/><polygon class="cls-7" points="485.1 159.51 434.81 112.84 384.52 159.51 485.1 159.51"/><polygon class="cls-4" points="475.31 159.51 434.81 122.51 394.31 159.51 475.31 159.51"/><rect x="401.55" y="154.8" width="10.7" height="6.71" transform="translate(813.8 280.67) rotate(-180)"/><rect class="cls-4" x="394.31" y="195.16" width="81" height="57.17" transform="translate(869.62 411.83) rotate(-180)"/><polygon class="cls-9" points="394.44 159.51 394.44 216.67 434.94 216.67 434.94 122.51 394.44 159.51"/><rect class="cls-10" x="445.48" y="207.58" width="18.67" height="44.75" transform="translate(909.63 424.25) rotate(-180)"/><rect class="cls-8" x="406.58" y="208.64" width="16.22" height="18.58" transform="translate(829.37 400.2) rotate(-180)"/><rect x="403.4" y="227.21" width="22.57" height="5.81" transform="translate(829.37 424.58) rotate(-180)"/><path class="cls-8" d="M446.55,186.48a11.74,11.74,0,0,0-23.48,0h23.48Z" transform="translate(0 -35.65)"/><rect x="490.71" y="205.24" width="47.48" height="47.08" transform="translate(1028.91 421.92) rotate(-180)"/><rect class="cls-8" x="490.71" y="205.24" width="47.48" height="8.24" transform="translate(1028.91 383.08) rotate(-180)"/><circle class="cls-15" cx="515.11" cy="189.54" r="6.55"/><circle class="cls-15" cx="515.11" cy="200.4" r="8.17"/><path class="cls-15" d="M524.44,254.55a10.3,10.3,0,1,0-18.67,0h18.67Z" transform="translate(0 -35.65)"/><circle class="cls-15" cx="564.36" cy="189.54" r="6.55"/><circle class="cls-15" cx="564.36" cy="200.4" r="8.17"/><path class="cls-15" d="M573.69,254.55a10.3,10.3,0,1,0-18.67,0h18.67Z" transform="translate(0 -35.65)"/><polygon class="cls-8" points="1111.99 195.8 1127.77 170.86 1056.19 123.75 984.61 170.86 1000.38 195.8 1111.99 195.8"/><rect class="cls-12" x="987.86" y="175.55" width="136.66" height="43.25"/><polygon class="cls-12" points="987.86 175.55 1056.19 130.57 1124.52 175.55 987.86 175.55"/><polygon class="cls-10" points="987.86 175.55 987.86 218.79 1056.19 218.79 1056.19 130.57 987.86 175.55"/><g class="cls-20"><rect class="cls-10" x="973.22" y="216.62" width="165.94" height="2.18"/><rect class="cls-10" x="973.22" y="211.62" width="165.94" height="2.18"/><rect class="cls-10" x="973.22" y="206.62" width="165.94" height="2.18"/><rect class="cls-10" x="973.22" y="201.62" width="165.94" height="2.18"/><rect class="cls-10" x="973.22" y="196.62" width="165.94" height="2.18"/><rect class="cls-10" x="973.22" y="191.62" width="165.94" height="2.18"/><rect class="cls-10" x="973.22" y="186.62" width="165.94" height="2.18"/><rect class="cls-10" x="973.22" y="181.62" width="165.94" height="2.18"/><rect class="cls-10" x="973.22" y="176.62" width="165.94" height="2.18"/><rect class="cls-10" x="973.22" y="171.62" width="165.94" height="2.18"/><rect class="cls-10" x="973.22" y="166.62" width="165.94" height="2.18"/><rect class="cls-10" x="973.22" y="161.62" width="165.94" height="2.18"/><rect class="cls-10" x="973.22" y="156.62" width="165.94" height="2.18"/><rect class="cls-10" x="973.22" y="151.62" width="165.94" height="2.18"/><rect class="cls-10" x="973.22" y="146.62" width="165.94" height="2.18"/><rect class="cls-10" x="973.22" y="141.62" width="165.94" height="2.18"/><rect class="cls-10" x="973.22" y="136.62" width="165.94" height="2.18"/><rect class="cls-10" x="973.22" y="131.62" width="165.94" height="2.18"/></g><rect class="cls-7" x="1009.87" y="176.74" width="25.09" height="37.69"/><rect class="cls-6" x="1076.33" y="176.74" width="12.01" height="9.53"/><rect class="cls-6" x="1091.13" y="176.74" width="12.01" height="9.53"/><rect class="cls-6" x="1076.33" y="188.8" width="12.01" height="9.53"/><rect class="cls-6" x="1091.13" y="188.8" width="12.01" height="9.53"/><rect class="cls-13" x="1005.14" y="214.44" width="34.54" height="4.36"/><rect class="cls-14" x="1113.56" y="231.32" width="8.71" height="44.52"/><circle class="cls-5" cx="1117.75" cy="210.22" r="21.51"/><path class="cls-16" d="M1117.75,267.38a21.51,21.51,0,1,0,0-43v43Z" transform="translate(0 -35.65)"/><rect class="cls-14" x="1091.36" y="258.38" width="5.37" height="17.46"/><circle class="cls-15" cx="1093.94" cy="245.36" r="13.27"/><path class="cls-5" d="M1093.94,294.28a13.27,13.27,0,0,0,0-26.53v26.53Z" transform="translate(0 -35.65)"/><path class="cls-4" d="M1491.83,338.67a9.06,9.06,0,0,1-15.65-4.87,9.07,9.07,0,0,1-18,0,9.07,9.07,0,0,1-18,0,9.08,9.08,0,0,1-9,7.81v3.59h60.58v-6.52Z" transform="translate(0 -35.65)"/></svg>