<?xml version="1.0" encoding="utf-8"?>
<!-- Generator: Adobe Illustrator 19.2.0, SVG Export Plug-In . SVG Version: 6.00 Build 0)  -->
<svg version="1.1" id="Layer_1" xmlns="http://www.w3.org/2000/svg" xmlns:xlink="http://www.w3.org/1999/xlink" x="0px" y="0px"
	 viewBox="0 0 135 135" style="enable-background:new 0 0 135 135;" xml:space="preserve">
<style type="text/css">
	.st0{clip-path:url(#SVGID_2_);}
	.st1{clip-path:url(#SVGID_4_);fill:#0071BC;}
	.st2{fill:none;stroke:#FFFFFF;stroke-width:1.5;}
</style>
<g>
	<g>
		<defs>
			<circle id="SVGID_1_" cx="67.9" cy="67.3" r="65"/>
		</defs>
		<clipPath id="SVGID_2_">
			<use xlink:href="#SVGID_1_"  style="overflow:visible;"/>
		</clipPath>
		<g class="st0">
			<defs>
				<rect id="SVGID_3_" x="2.9" y="2.3" width="130" height="130"/>
			</defs>
			<clipPath id="SVGID_4_">
				<use xlink:href="#SVGID_3_"  style="overflow:visible;"/>
			</clipPath>
			<rect x="-2.1" y="-2.7" class="st1" width="140" height="140"/>
		</g>
	</g>
	<g>
		<path class="st2" d="M60.7,81.6l-0.9,6.7c0,0.5,0.4,0.9,0.9,0.9h14.5c0.5,0,0.9-0.4,0.9-0.9l-0.9-6.7"/>
		<path class="st2" d="M86.6,45.5H49.2c-1.7,0-3.1,1.3-3.1,3V74c0,1.7,1.4,3,3.1,3h37.4c1.7,0,3.1-1.4,3.1-3V48.5
			C89.7,46.8,88.4,45.5,86.6,45.5z"/>
		<line class="st2" x1="46.2" y1="71.1" x2="89.7" y2="71.1"/>
	</g>
</g>
</svg>
